<?xml version="1.0" encoding="utf-8"?>
<!-- Generator: Adobe Illustrator 25.2.1, SVG Export Plug-In . SVG Version: 6.00 Build 0)  -->
<svg version="1.1" id="레이어_1" xmlns="http://www.w3.org/2000/svg" xmlns:xlink="http://www.w3.org/1999/xlink" x="0px"
	 y="0px" viewBox="0 0 280 230" style="enable-background:new 0 0 280 230;" xml:space="preserve">
<style type="text/css">
	.st0{fill:#F39800;}
	.st1{fill:#F8B62D;}
</style>
<g>
	<g>
		<path class="st0" d="M137.11,87.78c0,15.81,0.12,31.62-0.03,47.43c-0.16,15.8-5.88,29.38-16.94,40.71
			c-8.07,8.27-17.46,14.33-28.77,17.03c-3.83,0.91-7.8,1.52-11.74,1.73c-13.64,0.72-27.16,0.06-40.16-4.78
			c-7.03-2.62-13.81-5.72-19.81-10.31c-0.72-0.55-1.4-1.16-2.07-1.78c-1.4-1.28-1.4-1.29,0.05-2.41c4.21-3.27,8.43-6.53,12.64-9.8
			c4-3.1,8.01-6.18,11.99-9.29c0.8-0.62,1.41-0.85,2.16,0.11c5.03,6.44,11.82,9.89,19.78,10.65c5.32,0.51,10.76,0.52,16.07-0.03
			c8.48-0.88,14.45-6,19.02-12.9c4.4-6.65,6.05-14.05,6.04-21.94c-0.02-31.03-0.01-62.05-0.01-93.08c0-3.11,0-3.11,3.05-3.11
			c8.7,0,17.4,0,26.11,0c2.59,0,2.62,0.03,2.62,2.57c0,16.4,0,32.8,0,49.21C137.11,87.78,137.11,87.78,137.11,87.78z"/>
	</g>
	<g>
		<path class="st0" d="M187.42,127.19c0-20.82,0-41.64,0-62.46c0-5.29,0.84-10.4,3.88-14.85c5.74-8.44,13.76-13.49,23.95-13.75
			c15.8-0.4,31.61-0.11,47.42-0.14c1.32,0,1.89,0.47,1.89,1.84c-0.03,7.93-0.01,15.85-0.02,23.78c0,1.58-0.25,1.75-2.2,1.75
			c-13.35,0-26.7,0-40.04,0c-2.96,0-2.96,0-2.96,2.92c0,41.5,0,83,0,124.5c0,3.01,0,3.01-3.01,3.01c-8.88,0-17.77,0-26.65,0
			c-2.14,0-2.25-0.11-2.25-2.24C187.42,170.1,187.42,148.65,187.42,127.19z"/>
	</g>
	<g>
		<path class="st1" d="M192.99,36.17c-0.35,0.68-0.52,1.09-0.75,1.47c-4.91,7.94-9.86,15.85-14.72,23.82
			c-0.87,1.42-1.86,1.96-3.52,1.95c-8.97-0.07-17.94-0.03-26.91-0.04c-2.15,0-2.28-0.13-2.28-2.22c-0.01-7.65-0.01-15.3,0-22.95
			c0-2.05,0.14-2.19,2.16-2.19c14.71,0,29.41,0,44.12,0C191.63,36.01,192.16,36.1,192.99,36.17z"/>
	</g>
</g>
</svg>
